<?xml version="1.0" encoding="utf-8"?>
<!-- Generator: Adobe Illustrator 17.0.0, SVG Export Plug-In . SVG Version: 6.00 Build 0)  -->
<!DOCTYPE svg PUBLIC "-//W3C//DTD SVG 1.1//EN" "http://www.w3.org/Graphics/SVG/1.1/DTD/svg11.dtd">
<svg version="1.1" id="Layer_1" xmlns="http://www.w3.org/2000/svg" xmlns:xlink="http://www.w3.org/1999/xlink" x="0px" y="0px"
	 width="2450px" height="525px" viewBox="-45.545 -72.166 2450 525" enable-background="new -45.545 -72.166 2450 525"
	 xml:space="preserve">
<g>
	<rect x="-37.553" y="95.084" width="95.933" height="342.409"/>
	<path d="M10.414-67.466c-31.969,0-55.959,28.656-55.959,56.622c0,26.64,23.99,55.296,55.959,55.296
		c30.644,0,55.973-27.317,55.973-56.622C66.386-42.826,39.069-67.466,10.414-67.466z"/>
	<path d="M299.473,85.753c-38.636,0-72.62,12.658-101.262,53.957h-1.339V95.084h-91.931v342.409h95.934V242.961
		c0-46.615,23.977-79.922,62.613-79.922c29.981,0,59.962,16.647,59.962,65.953v208.501h95.934V205.015
		C419.384,139.062,382.073,85.753,299.473,85.753z"/>
	<path d="M854.735,85.753c-28.656,0-66.616,7.992-100.586,53.309c-23.977-47.332-69.293-53.309-91.945-53.309
		c-39.298,0-72.606,8.668-103.263,53.957h-1.325V95.084h-91.931v342.409h95.934V229.641c0-33.294,14.645-66.602,53.944-66.602
		c39.988,0,51.97,27.303,51.97,63.289v211.165h95.934V224.326c0-27.317,17.986-61.287,54.635-61.287
		c36.634,0,51.307,27.303,51.307,53.971v220.483h95.907V191.681C965.314,119.737,913.344,85.753,854.735,85.753z"/>
	<path d="M1176.852,85.753c-103.263,0-175.207,70.604-175.207,181.198c0,109.254,71.944,179.873,175.207,179.873
		c80.612,0,143.259-36.648,166.573-106.604l-93.291-7.316c-13.32,26.64-39.299,40.637-68.617,40.637
		c-51.308,0-75.933-39.961-79.937-79.936h250.499v-26.654C1352.08,156.358,1280.129,85.753,1176.852,85.753z M1101.581,232.318
		c5.329-38.649,29.981-73.283,79.937-73.283c45.952,0,71.281,39.975,74.608,73.283H1101.581z"/>
	<path d="M1509.355-3.514h-95.934v98.598h-43.964v73.269h43.964v183.862c0,73.959,37.987,89.281,100.613,89.281
		c15.308,0,30.617-2.002,45.952-4.003v-75.27c-5.991,1.339-11.319,1.989-19.312,1.989c-24.653,0-31.32-7.33-31.32-22.638v-173.22
		h50.631V95.084h-50.631V-3.514z"/>
	<path d="M1928.197,437.493c-2.664-12.644-4.665-24.639-4.665-42.625V196.346c0-78.611-70.619-110.593-155.207-110.593
		c-119.924,0-157.221,67.291-160.561,119.91h91.931c1.988-30.63,25.316-50.631,64.615-50.631c41.962,0,67.278,20.001,67.278,60.625
		v15.998l-88.591,5.315c-133.907,8.005-145.902,68.617-145.902,105.265c0,77.948,65.953,104.589,119.924,104.589
		c39.961,0,85.264-11.995,117.247-53.958h1.339v44.627H1928.197z M1831.587,319.583c0,41.3-48.616,57.948-78.598,57.948
		c-31.982,0-59.962-9.318-59.962-39.961c0-24.653,14.659-37.973,58.637-41.976l79.923-7.316V319.583z"/>
</g>
</svg>
